<svg xmlns="http://www.w3.org/2000/svg" viewBox="0 0 168.3 57">
<!-- SVG created with Arrow, by QuiverAI (https://quiver.ai) -->
  <style type="text/css">.cls-0 {fill:#232224;stroke:#000000;stroke-width:0.2;stroke-miterlimit:10;}
.cls-1 {fill:#1D7056;stroke:#063123;stroke-width:0.25;stroke-miterlimit:10;}
.cls-2 {fill:#252426;}</style>
  <path class="cls-0" d="m2.3 13.2 0.7-0.3h7l0.7 0.3 0.3 0.6v14.1h0.3c1.7-2.1 4-3.5 7.8-3.5 6.6 0 10.5 3.3 10.5 10.9v18.4l-0.4 0.8-0.8 0.3h-7.6l-0.7-0.3-0.3-0.8v-16.6c0-2.6-1.4-4.4-4.4-4.4-2.6 0-4.3 1.5-4.3 4.7v16.3l-0.4 0.8-0.7 0.3h-7l-0.7-0.3-0.2-0.8v-39.9l0.2-0.6z"/>
  <path class="cls-0" d="m32.7 40.7c0-7.6 5.4-16.3 15.8-16.2 9.9-0.1 16.2 7.6 16.2 15.4 0 8.5-5.1 15.5-16.3 15.6-10.3 0-15.7-6.2-15.7-14.8zm21.8-0.3c0-4.4-2.1-7.7-6.1-7.7-3.9 0-5.9 3.3-5.9 7.6 0 4.4 1.9 7.4 5.9 7.4s6.1-2.9 6.1-7.3z"/>
  <path class="cls-0" d="m68.2 25.2 0.6-0.5h7.2l0.7 0.4 0.2 0.7v2.6h0.2c1.7-2.2 4-3.9 8.1-3.9 3.7 0 6.4 1.3 9 4.1 2.5-2.7 5.4-4.1 9.9-4.1 6.6 0 11.4 3.6 11.4 11.4v17.7l-0.3 0.9-0.8 0.3h-7l-0.7-0.3-0.3-0.8v-16.1c0-3.2-1.6-5-4.7-5-3 0-5 1.9-5 4.9v16.2l-0.3 0.8-0.7 0.3h-7.8l-0.6-0.3-0.2-0.8v-16.1c0-3-1.7-4.9-4.6-4.9-3.1 0-4.9 1.9-4.9 4.9v16l-0.2 0.8-0.8 0.4h-7.6l-0.7-0.3-0.3-0.7v-28l0.2-0.6z"/>
  <path class="cls-1" d="m132.1 21.7c3.5-1.6 5.8-5.1 5.8-9.8 0-5.5-4.5-11.3-11-11.3-5.4 0-10.8 4.1-10.8 10.9 0.2 4.2 2.6 8 6.4 10.1v32.1l0.3 0.7 0.6 0.4h9.9l0.6-0.3 0.3-0.5v-4.3l-0.4-0.6-0.7-0.2h-1.8v-3.8h1.9l0.7-0.3 0.3-0.6v-2.4l-0.3-0.7-0.7-0.2h-1.9v-19.1l0.8-0.1zm-5.3-16c2.2-0.2 3.8 1.3 3.8 3.8 0 1.8-1.5 3.7-3.8 3.7-1.7 0-3.6-1.6-3.6-3.5 0-2.1 1.6-4 3.6-4z"/>
  <path class="cls-2" d="m147.1 42.1h18.1l0.8-0.3 0.3-0.7v-1.4c0-7.8-5.7-15.3-13.8-15.3-8.4-0.4-15 6.5-15.1 15 0 9.9 5.7 16.1 15.8 16.1 5.9 0 11-3 12.9-8.2l-8-1.8-0.6 0.2c-1.3 1.7-3 2.5-4.9 2.5-3.5 0-5.6-2.2-5.6-6.1h0.1zm5.4-10.5c2.2 0 5 2.1 5.3 5.1h-10.4c0.1-2.7 2.3-5.1 5.1-5.1z"/>
  <path class="cls-0" d="m147.1 42.1h18.1l0.8-0.3 0.3-0.7v-1.4c0-7.8-5.7-15.3-13.8-15.3-8.4-0.4-15 6.5-15.1 15 0 9.9 5.7 16.1 15.8 16.1 5.9 0 11-3 12.9-8.2l-8-1.8-0.6 0.2c-1.3 1.7-3 2.5-4.9 2.5-3.5 0-5.6-2.2-5.6-6.1h0.1zm5.4-10.5c2.2 0 5 2.1 5.3 5.1h-10.4c0.1-2.7 2.3-5.1 5.1-5.1z"/>
</svg>